# xmcd
#
# Track frame offsets: 
#        150
#        20497
#        41312
#        79302
#        100297
#        121822
#        136177
#        158915
#        193910
#        211805
#
# Disc length: 3241 seconds
#
# Revision: 11
# Processed by: cddbd v1.5.2PL0 Copyright (c) Steve Scherf et al.
# Submitted via: ExactAudioCopy v1.0b3
#
DISCID=7f0ca70a
DTITLE=Buddy Guy - Damn Right, I've Got The Blues
DYEAR=1991
DGENRE=Blues
TTITLE0=Damn Right, I've Got The Blues
TTITLE1=Where Is The Next One Coming From
TTITLE2=Five Long Years
TTITLE3=Mustang Sally
TTITLE4=There Is Something On Your Mind
TTITLE5=Early In The Morning
TTITLE6=Too Broke To Spend The Night
TTITLE7=Black Night
TTITLE8=Let Me Love You Baby
TTITLE9=Rememberin' Stevie
EXTD=YEAR: 1991
EXTT0=
EXTT1=
EXTT2=
EXTT3=
EXTT4=
EXTT5=
EXTT6=
EXTT7=
EXTT8=
EXTT9=
PLAYORDER=
